<svg width="40" height="40" viewBox="0 0 40 40" fill="none" xmlns="http://www.w3.org/2000/svg">
<circle cx="20" cy="20" r="19.5" stroke="#E0E0E9"/>
<path d="M10 29C9.99992 27.4603 10.4441 25.9533 11.2793 24.6599C12.1146 23.3664 13.3053 22.3415 14.7086 21.708C16.1119 21.0746 17.6682 20.8595 19.1908 21.0887C20.7133 21.3178 22.1373 21.9815 23.292 23M27 24V30M30 27H24M23 16C23 18.7614 20.7614 21 18 21C15.2386 21 13 18.7614 13 16C13 13.2386 15.2386 11 18 11C20.7614 11 23 13.2386 23 16Z" stroke="#014899" stroke-width="1.5" stroke-linecap="round" stroke-linejoin="round"/>
</svg>
