<svg width="40" height="40" viewBox="0 0 40 40" fill="none" xmlns="http://www.w3.org/2000/svg">
<circle cx="20" cy="20" r="19.5" stroke="#E0E0E9"/>
<path d="M25.8 27.2L24 19L27.5 15.5C29 14 29.5 12 29 11C28 10.5 26 11 24.5 12.5L21 16L12.8 14.2C12.3 14.1 11.9 14.3 11.7 14.7L11.4 15.2C11.2 15.7 11.3 16.2 11.7 16.5L17 20L15 23H12L11 24L14 26L16 29L17 28V25L20 23L23.5 28.3C23.8 28.7 24.3 28.8 24.8 28.6L25.3 28.4C25.7 28.1 25.9 27.7 25.8 27.2Z" stroke="#014899" stroke-width="1.5" stroke-linecap="round" stroke-linejoin="round"/>
</svg>
