<svg width="40" height="40" viewBox="0 0 40 40" fill="none" xmlns="http://www.w3.org/2000/svg">
<g clip-path="url(#clip0_361_1042)">
<circle cx="20" cy="20" r="20" fill="#CCE4FF"/>
<circle cx="12.3584" cy="25.377" r="6.70557" fill="#67ADFE"/>
<path d="M10.1499 27.6014C10.15 26.3423 10.4473 25.1011 11.0176 23.9786C11.5878 22.8561 12.415 21.8841 13.4317 21.1415C14.4485 20.399 15.6261 19.9069 16.8689 19.7053" stroke="#014899" stroke-width="1.5" stroke-linecap="round" stroke-linejoin="round"/>
<path d="M23.1499 14.6014C23.1499 11.84 20.9113 9.60144 18.1499 9.60144C15.3885 9.60144 13.1499 11.84 13.1499 14.6014C13.1499 17.3629 15.3885 19.6014 18.1499 19.6014" stroke="#014899" stroke-width="1.5" stroke-linecap="round" stroke-linejoin="round"/>
<path d="M24.6101 17.5312H30.7247C31.0195 17.5312 31.3023 17.6484 31.5108 17.8569C31.7193 18.0654 31.8364 18.3481 31.8364 18.643V26.4251C31.8364 26.72 31.7193 27.0028 31.5108 27.2112C31.3023 27.4197 31.0195 27.5369 30.7247 27.5369H22.9425C22.6477 27.5369 22.3649 27.4197 22.1564 27.2112C21.9479 27.0028 21.8308 26.72 21.8308 26.4251V20.3106L24.6101 17.5312Z" stroke="#014899" stroke-width="1.5" stroke-linecap="round" stroke-linejoin="round"/>
<path d="M25.166 17.5312V19.7547C25.166 20.0496 25.0489 20.3323 24.8404 20.5408C24.6319 20.7493 24.3491 20.8665 24.0543 20.8665H21.8308" stroke="#014899" stroke-width="1.5" stroke-linecap="round" stroke-linejoin="round"/>
<path d="M25.4775 22.4186L27.4845 24.5137L33.135 18.9153" stroke="#67ADFE" stroke-width="1.5" stroke-linecap="round" stroke-linejoin="round"/>
</g>
<defs>
<clipPath id="clip0_361_1042">
<rect width="40" height="40" fill="white"/>
</clipPath>
</defs>
</svg>
