<svg width="40" height="40" viewBox="0 0 40 40" fill="none" xmlns="http://www.w3.org/2000/svg">
<g clip-path="url(#clip0_361_1069)">
<circle cx="20" cy="20" r="20" fill="#D9F2FA"/>
<circle cx="9.5" cy="17.5" r="4.5" fill="#5FC6E8"/>
<path d="M32.5999 24.8C32.5999 27.7957 29.2765 30.9157 28.1606 31.8793C28.0566 31.9575 27.93 31.9998 27.8 31.9998C27.6699 31.9998 27.5433 31.9575 27.4394 31.8793C26.3234 30.9157 23 27.7957 23 24.8C23 23.5269 23.5057 22.306 24.4059 21.4059C25.306 20.5057 26.5269 20 27.8 20C29.073 20 30.2939 20.5057 31.194 21.4059C32.0942 22.306 32.5999 23.5269 32.5999 24.8Z" stroke="#5FC6E8" stroke-width="1.5" stroke-linecap="round" stroke-linejoin="round"/>
<path d="M27.8 26.6C28.7941 26.6 29.6 25.7941 29.6 24.8C29.6 23.8059 28.7941 23 27.8 23C26.8059 23 26 23.8059 26 24.8C26 25.7941 26.8059 26.6 27.8 26.6Z" stroke="#5FC6E8" stroke-width="1.5" stroke-linecap="round" stroke-linejoin="round"/>
<path d="M14 9V13M22 9V13M21 29H11C9.89543 29 9 28.1046 9 27V13C9 11.8954 9.89543 11 11 11H25C26.1046 11 27 11.8954 27 13V17H9" stroke="#014899" stroke-width="1.5" stroke-linecap="round" stroke-linejoin="round"/>
</g>
<defs>
<clipPath id="clip0_361_1069">
<rect width="40" height="40" fill="white"/>
</clipPath>
</defs>
</svg>
