<svg width="40" height="40" viewBox="0 0 40 40" fill="none" xmlns="http://www.w3.org/2000/svg">
<g clip-path="url(#clip0_361_1050)">
<circle cx="20" cy="20" r="20" fill="#D3F6E6"/>
<circle cx="14.5" cy="21.5" r="5.5" fill="#3FD695"/>
<path d="M22 13L25 10M25 10L28 13M25 10V22M22 18L25 15L28 18" stroke="#3FD695" stroke-width="1.5" stroke-linecap="round" stroke-linejoin="round"/>
<path d="M17 22L22 30M15 16C15 17.1046 14.1046 18 13 18C11.8954 18 11 17.1046 11 16C11 14.8954 11.8954 14 13 14C14.1046 14 15 14.8954 15 16ZM25 22H15L10 30H30L25 22Z" stroke="#014899" stroke-width="1.5" stroke-linecap="round" stroke-linejoin="round"/>
</g>
<defs>
<clipPath id="clip0_361_1050">
<rect width="40" height="40" fill="white"/>
</clipPath>
</defs>
</svg>
