<svg width="40" height="40" viewBox="0 0 40 40" fill="none" xmlns="http://www.w3.org/2000/svg">
<circle cx="20" cy="20" r="20" fill="#FFD7AB"/>
<path d="M18 19H18.01M22 14H22.01M26 14H26.01M14.5 21.1H14.51M25.4 17.9C24.6 18.7 23.4 18.7 22.6 17.9M18.1 15.1C17 15.2 15.7 15.7 14 16.6C10.5 18.6 9.30001 20.5 10.3 22.2C14.8 30 19.8 30.6 21.5 29.6C22.4 29.1 23.4 27.5 23.4 24.9M17.1 24.5C17.4 23.4 18.5 22.8 19.5 23.1M30 13C30 22 26 25 24 25C22 25 18 22 18 13C18 11 20 10 24 10C28 10 30 11 30 13Z" stroke="#014899" stroke-width="1.5" stroke-linecap="round" stroke-linejoin="round"/>
</svg>
