<svg width="40" height="40" viewBox="0 0 40 40" fill="none" xmlns="http://www.w3.org/2000/svg">
<rect width="40" height="40" fill="#F0F0F6"/>
<g id="Category Icons">
<path d="M-383 -38C-383 -39.1046 -382.105 -40 -381 -40H176C177.105 -40 178 -39.1046 178 -38V141C178 142.105 177.105 143 176 143H-381C-382.105 143 -383 142.105 -383 141V-38Z" fill="white"/>
<path d="M-381 -39H176V-41H-381V-39ZM177 -38V141H179V-38H177ZM176 142H-381V144H176V142ZM-382 141V-38H-384V141H-382ZM-381 142C-381.552 142 -382 141.552 -382 141H-384C-384 142.657 -382.657 144 -381 144V142ZM177 141C177 141.552 176.552 142 176 142V144C177.657 144 179 142.657 179 141H177ZM176 -39C176.552 -39 177 -38.5523 177 -38H179C179 -39.6569 177.657 -41 176 -41V-39ZM-381 -41C-382.657 -41 -384 -39.6568 -384 -38H-382C-382 -38.5523 -381.552 -39 -381 -39V-41Z" fill="black" fill-opacity="0.1"/>
<g id="Culture &#38; Culture" clip-path="url(#clip0_0_1)">
<g id="Group 35">
<circle id="Ellipse 1538" cx="20" cy="20" r="20" fill="#D9F2FA"/>
<g id="Group 34">
<circle id="Ellipse 1555" cx="11.136" cy="20" r="7.26807" fill="#5FC6E8"/>
<path id="Vector" d="M17.8383 19.9158H17.8493M22.2453 14.407H22.2563M26.6523 14.407H26.6633M13.9821 22.2294H13.9932M25.9912 18.7038C25.1098 19.5852 23.7877 19.5852 22.9063 18.7038M17.9484 15.6189C16.7365 15.7291 15.3042 16.28 13.4313 17.2716C9.57513 19.4751 8.25303 21.5684 9.35478 23.4414C14.3127 32.035 19.8214 32.6961 21.6944 31.5943C22.686 31.0434 23.7877 29.2806 23.7877 26.4161M16.8467 25.9754C17.1772 24.7635 18.3891 24.1024 19.4909 24.4329M31.0593 13.3053C31.0593 23.221 26.6523 26.5263 24.4488 26.5263C22.2453 26.5263 17.8383 23.221 17.8383 13.3053C17.8383 11.1018 20.0418 10 24.4488 10C28.8558 10 31.0593 11.1018 31.0593 13.3053Z" stroke="#014899" stroke-width="1.5" stroke-linecap="round" stroke-linejoin="round"/>
</g>
</g>
</g>
</g>
<defs>
<clipPath id="clip0_0_1">
<rect width="40" height="40" fill="white"/>
</clipPath>
</defs>
</svg>
