<svg width="40" height="40" viewBox="0 0 40 40" fill="none" xmlns="http://www.w3.org/2000/svg">
<g clip-path="url(#clip0_361_1039)">
<circle cx="20" cy="20" r="20" fill="#FFF2E3"/>
<path d="M18.5835 17.6884C18.5835 21.3668 15.6016 24.3487 11.9232 24.3487C8.24486 24.3487 5.26294 21.3668 5.26294 17.6884C5.26294 14.01 8.24486 11.0281 11.9232 11.0281C15.6016 11.0281 18.5835 14.01 18.5835 17.6884Z" fill="#F79F3B"/>
<path d="M32.3822 18.8444C32.6067 18.7454 32.7971 18.5827 32.93 18.3765C33.0629 18.1703 33.1324 17.9296 33.1298 17.6844C33.1273 17.4391 33.0529 17.1999 32.9157 16.9965C32.7786 16.7931 32.5848 16.6344 32.3584 16.54L21.6128 11.6455C21.2862 11.4965 20.9313 11.4194 20.5723 11.4194C20.2132 11.4194 19.8584 11.4965 19.5317 11.6455L8.78737 16.535C8.56417 16.6328 8.37429 16.7935 8.24096 16.9974C8.10763 17.2014 8.03662 17.4398 8.03662 17.6834C8.03662 17.9271 8.10763 18.1655 8.24096 18.3694C8.37429 18.5734 8.56417 18.7341 8.78737 18.8318L19.5317 23.7313C19.8584 23.8803 20.2132 23.9574 20.5723 23.9574C20.9313 23.9574 21.2862 23.8803 21.6128 23.7313L32.3822 18.8444Z" stroke="#014899" stroke-width="1.5" stroke-linecap="round" stroke-linejoin="round"/>
<path d="M33.1094 17.6885V25.2107" stroke="#014899" stroke-width="1.5" stroke-linecap="round" stroke-linejoin="round"/>
<path d="M13.05 20.8228V25.2107C13.05 26.2083 13.8426 27.1649 15.2533 27.8703C16.664 28.5756 18.5773 28.9719 20.5723 28.9719C22.5674 28.9719 24.4807 28.5756 25.8914 27.8703C27.3021 27.1649 28.0946 26.2083 28.0946 25.2107V20.8228" stroke="#014899" stroke-width="1.5" stroke-linecap="round" stroke-linejoin="round"/>
<path d="M31.446 25.0592C31.446 24.1504 32.1828 23.4137 33.0916 23.4137C34.0004 23.4137 34.7371 24.1504 34.7371 25.0592V28.8988H31.446V25.0592Z" fill="#F79F3B"/>
</g>
<defs>
<clipPath id="clip0_361_1039">
<rect width="40" height="40" fill="white"/>
</clipPath>
</defs>
</svg>
