<svg width="40" height="40" viewBox="0 0 40 40" fill="none" xmlns="http://www.w3.org/2000/svg">
<g clip-path="url(#clip0_361_1048)">
<path d="M40 20C40 31.0457 31.0457 40 20 40C8.9543 40 0 31.0457 0 20C0 8.9543 8.9543 0 20 0C31.0457 0 40 8.9543 40 20Z" fill="#FFEAEA"/>
<path d="M24.511 13.3333C25.4712 12.36 26.4444 11.1933 26.4444 9.66667C26.4444 8.69421 26.0709 7.76158 25.4062 7.07394C24.7415 6.38631 23.84 6 22.8999 6C22.0795 6 21.4344 6.17441 20.7744 6.64937C20.3153 6.97973 19.6845 6.97973 19.2254 6.64937C18.5654 6.17441 17.9203 6 17.0999 6C16.1599 6 15.2583 6.38631 14.5936 7.07394C13.9289 7.76158 13.5555 8.69421 13.5555 9.66667C13.5555 11.2 14.5221 12.3667 15.4888 13.3333L19.2809 17.2562C19.674 17.6629 20.3258 17.6629 20.7189 17.2562L24.511 13.3333Z" fill="#FB8281"/>
<path d="M32 17L20 10L8 17" stroke="#014899" stroke-width="2" stroke-linecap="round" stroke-linejoin="round"/>
<path d="M13.5 24.625C15.0533 24.625 16.3125 23.3658 16.3125 21.8125C16.3125 20.2592 15.0533 19 13.5 19C11.9467 19 10.6875 20.2592 10.6875 21.8125C10.6875 23.3658 11.9467 24.625 13.5 24.625Z" stroke="#014899" stroke-width="1.5" stroke-linecap="round" stroke-linejoin="round"/>
<path d="M27.5 24.6138C28.7741 24.6138 29.8069 23.5809 29.8069 22.3069C29.8069 21.0328 28.7741 20 27.5 20C26.2259 20 25.1931 21.0328 25.1931 22.3069C25.1931 23.5809 26.2259 24.6138 27.5 24.6138Z" stroke="#014899" stroke-width="1.5" stroke-linecap="round" stroke-linejoin="round"/>
<path d="M20.8314 25.5393C21.8088 25.5393 22.6011 24.747 22.6011 23.7697C22.6011 22.7923 21.8088 22 20.8314 22C19.8541 22 19.0618 22.7923 19.0618 23.7697C19.0618 24.747 19.8541 25.5393 20.8314 25.5393Z" stroke="#FB8281" stroke-width="1.5" stroke-linecap="round" stroke-linejoin="round"/>
<path d="M23.6629 29C23.6629 28.2491 23.3646 27.5289 22.8336 26.9979C22.3026 26.4669 21.5824 26.1686 20.8315 26.1686C20.0805 26.1686 19.3603 26.4669 18.8293 26.9979C18.2983 27.5289 18 28.2491 18 29" stroke="#FB8281" stroke-width="1.5" stroke-linecap="round" stroke-linejoin="round"/>
<path d="M23.8091 29.125C23.8091 28.1461 24.198 27.2072 24.8902 26.515C25.5824 25.8228 26.5212 25.434 27.5001 25.434C28.479 25.434 29.4178 25.8228 30.11 26.515C30.8022 27.2072 31.1911 28.1461 31.1911 29.125V30" stroke="#014899" stroke-width="1.5" stroke-linecap="round" stroke-linejoin="round"/>
<path d="M18 30.125C18 28.9315 17.5259 27.7869 16.682 26.943C15.8381 26.0991 14.6935 25.625 13.5 25.625C12.3065 25.625 11.1619 26.0991 10.318 26.943C9.47411 27.7869 9 28.9315 9 30.125" stroke="#014899" stroke-width="1.5" stroke-linecap="round" stroke-linejoin="round"/>
</g>
<defs>
<clipPath id="clip0_361_1048">
<rect width="40" height="40" fill="white"/>
</clipPath>
</defs>
</svg>
