<svg width="40" height="40" viewBox="0 0 40 40" fill="none" xmlns="http://www.w3.org/2000/svg">
<g clip-path="url(#clip0_361_1046)">
<circle cx="20" cy="20" r="20" fill="#FFEAEA"/>
<path d="M15.1567 18H12.9198C12.1986 18 11.614 18.5846 11.614 19.3058V30.6942C11.614 31.4154 12.1986 32 12.9198 32H15.1567C15.8778 32 16.4624 31.4154 16.4624 30.6942V19.3058C16.4624 18.5846 15.8778 18 15.1567 18Z" fill="#FB8281"/>
<path d="M7 23.8926V26.1061C7 26.8273 7.58461 27.4119 8.30575 27.4119H19.7622C20.4834 27.4119 21.068 26.8273 21.068 26.1061V23.8926C21.068 23.1715 20.4834 22.5869 19.7622 22.5869H8.30575C7.58461 22.5869 7 23.1715 7 23.8926Z" fill="#FB8281"/>
<path d="M14.8 10.317C14.8036 10.3798 14.8268 10.4399 14.8664 10.4888C14.906 10.5377 14.96 10.573 15.0208 10.5895C15.0815 10.606 15.1459 10.603 15.2048 10.5809C15.2637 10.5588 15.3142 10.5188 15.3491 10.4664C15.384 10.414 15.4016 10.352 15.3993 10.2891C15.397 10.2262 15.375 10.1657 15.3364 10.116C15.2978 10.0663 15.2446 10.03 15.1842 10.0122C15.1238 9.99443 15.0594 9.99611 15 10.017H14C13.4696 10.017 12.9609 10.2277 12.5858 10.6028C12.2107 10.9778 12 11.4866 12 12.017V17.017C12 18.6083 12.6321 20.1344 13.7574 21.2596C14.8826 22.3848 16.4087 23.017 18 23.017C19.5913 23.017 21.1174 22.3848 22.2426 21.2596C23.3679 20.1344 24 18.6083 24 17.017V12.017C24 11.4866 23.7893 10.9778 23.4142 10.6028C23.0391 10.2277 22.5304 10.017 22 10.017H21C20.9803 10.0367 20.9647 10.0601 20.954 10.0858C20.9434 10.1115 20.9379 10.1391 20.9379 10.167C20.9379 10.1948 20.9434 10.2224 20.954 10.2482C20.9647 10.2739 20.9803 10.2973 21 10.317C21.0197 10.3367 21.0431 10.3523 21.0688 10.363C21.0946 10.3736 21.1221 10.3791 21.15 10.3791C21.1779 10.3791 21.2054 10.3736 21.2312 10.363C21.2569 10.3523 21.2803 10.3367 21.3 10.317" stroke="#014899" stroke-width="1.5" stroke-linecap="round" stroke-linejoin="round"/>
<path d="M18 23.017V24.017C18 25.6083 18.6321 27.1344 19.7574 28.2596C20.8826 29.3848 22.4087 30.017 24 30.017C25.5913 30.017 27.1174 29.3848 28.2426 28.2596C29.3679 27.1344 30 25.6083 30 24.017V20.017" stroke="#014899" stroke-width="1.5" stroke-linecap="round" stroke-linejoin="round"/>
<path d="M30 20.017C31.1046 20.017 32 19.1215 32 18.017C32 16.9124 31.1046 16.017 30 16.017C28.8954 16.017 28 16.9124 28 18.017C28 19.1215 28.8954 20.017 30 20.017Z" stroke="#FB8281" stroke-width="1.5" stroke-linecap="round" stroke-linejoin="round"/>
</g>
<defs>
<clipPath id="clip0_361_1046">
<rect width="40" height="40" fill="white"/>
</clipPath>
</defs>
</svg>
