<svg width="40" height="40" viewBox="0 0 40 40" fill="none" xmlns="http://www.w3.org/2000/svg">
<g clip-path="url(#clip0_361_1044)">
<circle cx="20" cy="20" r="20" fill="#D3F6E6"/>
<circle cx="15" cy="10" r="4" fill="#3FD695"/>
<path d="M24.8633 19.4741C26.0987 19.4741 27.1003 18.4725 27.1003 17.237C27.1003 16.0016 26.0987 15 24.8633 15C23.6278 15 22.6262 16.0016 22.6262 17.237C22.6262 18.4725 23.6278 19.4741 24.8633 19.4741Z" stroke="#3FD695" stroke-width="1.5" stroke-linecap="round" stroke-linejoin="round"/>
<path d="M25.9814 26.1851L20.6106 20.5527C18.9279 18.7879 16.6456 17.7964 14.2657 17.7963H12" stroke="#3FD695" stroke-width="1.5" stroke-linecap="round" stroke-linejoin="round"/>
<path d="M19.27 19.4742L14.8745 24.5" stroke="#3FD695" stroke-width="1.5" stroke-linecap="round" stroke-linejoin="round"/>
<path d="M33.1425 23.003C30.1007 23.003 29.8914 24.5285 27.2377 24.7408C27.0436 24.7529 26.8344 24.762 26.6069 24.762C23.3376 24.762 23.3376 23 20.0713 23C16.8019 23 16.8019 24.762 13.5356 24.762C11.6098 24.762 10.8183 24.1525 9.82655 23.652C9.13507 23.3002 8.34352 23.003 7 23.003" stroke="#014899" stroke-width="1.5" stroke-miterlimit="10" stroke-linecap="round" stroke-linejoin="round"/>
<path d="M9.82642 28.7757C10.8181 29.2761 11.6097 29.8857 13.5355 29.8857C16.8018 29.8857 16.8018 28.1237 20.0711 28.1237C23.3374 28.1237 23.3374 29.8857 26.6068 29.8857C26.8342 29.8857 27.0435 29.8766 27.2376 29.8645C28.9632 29.725 29.6547 29.0335 30.7647 28.5634" stroke="#014899" stroke-width="1.5" stroke-miterlimit="10" stroke-linecap="round" stroke-linejoin="round"/>
</g>
<defs>
<clipPath id="clip0_361_1044">
<rect width="40" height="40" fill="white"/>
</clipPath>
</defs>
</svg>
