<svg width="40" height="40" viewBox="0 0 40 40" fill="none" xmlns="http://www.w3.org/2000/svg">
<g clip-path="url(#clip0_361_1032)">
<circle cx="20" cy="20" r="20" fill="#FFF2E3"/>
<path d="M24 21.6H26.8C27.2951 21.6 27.7699 21.7966 28.1199 22.1467C28.47 22.4968 28.6667 22.9716 28.6667 23.4666V30C28.6667 29.6287 28.5192 29.2726 28.2566 29.01C27.9941 28.7475 27.638 28.6 27.2667 28.6H24V21.6Z" stroke="#F79F3B" stroke-width="1.5" stroke-linecap="round" stroke-linejoin="round"/>
<path d="M33.3334 21.6H30.5334C30.0383 21.6 29.5636 21.7966 29.2135 22.1467C28.8634 22.4968 28.6667 22.9716 28.6667 23.4666V30C28.6667 29.6287 28.8142 29.2726 29.0768 29.01C29.3394 28.7475 29.6954 28.6 30.0668 28.6H33.3334V21.6Z" stroke="#F79F3B" stroke-width="1.5" stroke-linecap="round" stroke-linejoin="round"/>
<path d="M16.5 16C16.5 19.0376 14.0376 21.5 11 21.5C7.96243 21.5 5.5 19.0376 5.5 16C5.5 12.9624 7.96243 10.5 11 10.5C14.0376 10.5 16.5 12.9624 16.5 16Z" fill="#F79F3B"/>
<path d="M17 29H11C10.4696 29 9.96086 28.7893 9.58579 28.4142C9.21071 28.0391 9 27.5304 9 27V19L13 17" stroke="#014899" stroke-width="1.5" stroke-linecap="round" stroke-linejoin="round"/>
<path d="M25 12V18.5" stroke="#014899" stroke-width="1.5" stroke-linecap="round" stroke-linejoin="round"/>
<path d="M11 13L19 9L27 13" stroke="#014899" stroke-width="1.5" stroke-linecap="round" stroke-linejoin="round"/>
<path d="M13 12V29" stroke="#014899" stroke-width="1.5" stroke-linecap="round" stroke-linejoin="round"/>
<path d="M19 18C20.1046 18 21 17.1046 21 16C21 14.8954 20.1046 14 19 14C17.8954 14 17 14.8954 17 16C17 17.1046 17.8954 18 19 18Z" stroke="#014899" stroke-width="1.5" stroke-linecap="round" stroke-linejoin="round"/>
<path d="M21 25.5V23C21 22.4477 20.5523 22 20 22H18C17.4477 22 17 22.4477 17 23V29" stroke="#014899" stroke-width="1.5" stroke-linecap="round" stroke-linejoin="round"/>
</g>
<defs>
<clipPath id="clip0_361_1032">
<rect width="40" height="40" fill="white"/>
</clipPath>
</defs>
</svg>
