<svg width="40" height="40" viewBox="0 0 40 40" fill="none" xmlns="http://www.w3.org/2000/svg">
<g clip-path="url(#clip0_361_1054)">
<circle cx="20" cy="20" r="20" fill="#FFEAEA"/>
<circle cx="28.5" cy="12.5" r="4.5" fill="#FB8281"/>
<path d="M27 23.6667C28.49 21.72 30 19.3867 30 16.3333C30 14.3884 29.4205 12.5232 28.3891 11.1479C27.3576 9.77262 25.9587 9 24.5 9C22.74 9 21.5 9.66667 20 11.6667C18.5 9.66667 17.26 9 15.5 9C14.0413 9 12.6424 9.77262 11.6109 11.1479C10.5795 12.5232 10 14.3884 10 16.3333C10 19.4 11.5 21.7333 13 23.6667L20 32L27 23.6667Z" stroke="#014899" stroke-width="1.5" stroke-linecap="round" stroke-linejoin="round"/>
<path d="M20 13.6923L20 26.6153" stroke="#FB8281" stroke-width="1.5"/>
<path d="M16 17.6923H24" stroke="#FB8281" stroke-width="1.5"/>
</g>
<defs>
<clipPath id="clip0_361_1054">
<rect width="40" height="40" fill="white"/>
</clipPath>
</defs>
</svg>
