<svg width="40" height="40" viewBox="0 0 40 40" fill="none" xmlns="http://www.w3.org/2000/svg">
<g clip-path="url(#clip0_361_1056)">
<circle cx="20" cy="20" r="20" fill="#FFF2E3"/>
<path d="M16.5 16C16.5 19.0376 14.0376 21.5 11 21.5C7.96243 21.5 5.5 19.0376 5.5 16C5.5 12.9624 7.96243 10.5 11 10.5C14.0376 10.5 16.5 12.9624 16.5 16Z" fill="#F79F3B"/>
<path d="M17 29H11C10.4696 29 9.96086 28.7893 9.58579 28.4142C9.21071 28.0391 9 27.5304 9 27V19L13 17" stroke="#014899" stroke-width="1.5" stroke-linecap="round" stroke-linejoin="round"/>
<path d="M25 12V18.5" stroke="#014899" stroke-width="1.5" stroke-linecap="round" stroke-linejoin="round"/>
<path d="M11 13L19 9L27 13" stroke="#014899" stroke-width="1.5" stroke-linecap="round" stroke-linejoin="round"/>
<path d="M13 12V29" stroke="#014899" stroke-width="1.5" stroke-linecap="round" stroke-linejoin="round"/>
<path d="M19 18C20.1046 18 21 17.1046 21 16C21 14.8954 20.1046 14 19 14C17.8954 14 17 14.8954 17 16C17 17.1046 17.8954 18 19 18Z" stroke="#014899" stroke-width="1.5" stroke-linecap="round" stroke-linejoin="round"/>
<path d="M25 29V22.0667L32 21V27.9333" stroke="#F79F3B" stroke-width="1.5" stroke-linecap="round" stroke-linejoin="round"/>
<path d="M23.5 31C24.3284 31 25 30.3284 25 29.5C25 28.6716 24.3284 28 23.5 28C22.6716 28 22 28.6716 22 29.5C22 30.3284 22.6716 31 23.5 31Z" stroke="#F79F3B" stroke-width="1.5" stroke-linecap="round" stroke-linejoin="round"/>
<path d="M30.5 30C31.3284 30 32 29.3284 32 28.5C32 27.6716 31.3284 27 30.5 27C29.6716 27 29 27.6716 29 28.5C29 29.3284 29.6716 30 30.5 30Z" stroke="#F79F3B" stroke-width="1.5" stroke-linecap="round" stroke-linejoin="round"/>
<path d="M21 25.5V23C21 22.4477 20.5523 22 20 22H18C17.4477 22 17 22.4477 17 23V29" stroke="#014899" stroke-width="1.5" stroke-linecap="round" stroke-linejoin="round"/>
</g>
<defs>
<clipPath id="clip0_361_1056">
<rect width="40" height="40" fill="white"/>
</clipPath>
</defs>
</svg>
