<svg width="40" height="40" viewBox="0 0 40 40" fill="none" xmlns="http://www.w3.org/2000/svg">
<circle cx="20" cy="20" r="19.5" stroke="#E0E0E9"/>
<path d="M12 30H26C26.5304 30 27.0391 29.7893 27.4142 29.4142C27.7893 29.0391 28 28.5304 28 28V15L23 10H14C13.4696 10 12.9609 10.2107 12.5858 10.5858C12.2107 10.9609 12 11.4696 12 12V18M22 10V14C22 14.5304 22.2107 15.0391 22.5858 15.4142C22.9609 15.7893 23.4696 16 24 16H28M18 18L13.5 22.5M17 19L18 20M14 24C14 25.1046 13.1046 26 12 26C10.8954 26 10 25.1046 10 24C10 22.8954 10.8954 22 12 22C13.1046 22 14 22.8954 14 24Z" stroke="#014899" stroke-width="1.5" stroke-linecap="round" stroke-linejoin="round"/>
</svg>
