<svg width="40" height="40" viewBox="0 0 40 40" fill="none" xmlns="http://www.w3.org/2000/svg">
<g clip-path="url(#clip0_361_1059)">
<circle cx="20" cy="20" r="20" fill="#FFF2E3"/>
<path d="M21 15.5C21 19.6421 17.6421 23 13.5 23C9.35786 23 6 19.6421 6 15.5C6 11.3579 9.35786 8 13.5 8C17.6421 8 21 11.3579 21 15.5Z" fill="#F79F3B"/>
<path d="M15 28L18.5 28M31 17L31 10" stroke="#014899" stroke-width="1.5" stroke-linecap="round" stroke-linejoin="round"/>
<path d="M10 14L10 29C10 29.5304 10.2107 30.0391 10.5858 30.4142C10.9609 30.7893 11.4696 31 12 31L13 31C13.2652 31 13.5196 30.8946 13.7071 30.7071C13.8946 30.5196 14 30.2652 14 30L14 17C14 16.7348 13.8946 16.4804 13.7071 16.2929C13.5196 16.1054 13.2652 16 13 16L12 16C11.4696 16 10.9609 15.7893 10.5858 15.4142C10.2107 15.0391 10 14.5304 10 14ZM10 14C10 13.4696 10.2107 12.9609 10.5858 12.5858C10.9609 12.2107 11.4696 12 12 12L29 12C29.5304 12 30.0391 11.7893 30.4142 11.4142C30.7893 11.0391 31 10.5304 31 10C31 9.46957 30.7893 8.96086 30.4142 8.58579C30.0391 8.21071 29.5304 8 29 8L27 8C26.7348 8 26.4804 8.10536 26.2929 8.29289C26.1054 8.48043 26 8.73478 26 9L26 12" stroke="#014899" stroke-width="1.5" stroke-linecap="round" stroke-linejoin="round"/>
<path d="M30 31V26.5556C30 26.4082 29.9122 26.2669 29.7559 26.1627C29.5996 26.0585 29.3877 26 29.1667 26H25.8333C25.6123 26 25.4004 26.0585 25.2441 26.1627C25.0878 26.2669 25 26.4082 25 26.5556V31" stroke="#F79F3B" stroke-width="1.5" stroke-linecap="round" stroke-linejoin="round"/>
<path d="M22 24.0524C22 23.8687 22.0387 23.6871 22.1135 23.5205C22.1884 23.3538 22.2975 23.206 22.4333 23.0874L26.7111 19.2984C26.9317 19.1057 27.2112 19 27.5 19C27.7888 19 28.0683 19.1057 28.2889 19.2984L32.5667 23.0874C32.7025 23.206 32.8116 23.3538 32.8865 23.5205C32.9613 23.6871 33 23.8687 33 24.0524V29.7368C33 30.0718 32.8712 30.3931 32.642 30.63C32.4128 30.8669 32.1019 31 31.7778 31H23.2222C22.8981 31 22.5872 30.8669 22.358 30.63C22.1288 30.3931 22 30.0718 22 29.7368V24.0524Z" stroke="#F79F3B" stroke-width="1.5" stroke-linecap="round" stroke-linejoin="round"/>
</g>
<defs>
<clipPath id="clip0_361_1059">
<rect width="40" height="40" fill="white"/>
</clipPath>
</defs>
</svg>
