<svg width="40" height="40" viewBox="0 0 40 40" fill="none" xmlns="http://www.w3.org/2000/svg">
<g clip-path="url(#clip0_361_1075)">
<rect width="40" height="40" fill="white"/>
<circle cx="20" cy="20" r="20" fill="#CCE4FF"/>
<circle cx="13" cy="14" r="5" fill="#67ADFE"/>
<rect x="18.2068" y="7" width="3.58621" height="4.48276" stroke="#014899" stroke-width="1.5" stroke-linecap="round" stroke-linejoin="round"/>
<rect x="11.9312" y="21.3448" width="16.1379" height="11.6552" stroke="#014899" stroke-width="1.5" stroke-linecap="round" stroke-linejoin="round"/>
<path d="M13.7241 11.4828H26.2759L29.8621 21.3449H10.1379L13.7241 11.4828Z" stroke="#014899" stroke-width="1.5" stroke-linecap="round" stroke-linejoin="round"/>
<path d="M14.6206 24.931C14.6206 24.4358 15.022 24.0344 15.5172 24.0344V24.0344C16.0123 24.0344 16.4137 24.4358 16.4137 24.931V29.4137H14.6206V24.931Z" stroke="#67ADFE" stroke-width="1.5" stroke-linecap="round" stroke-linejoin="round"/>
<path d="M19.1035 24.931C19.1035 24.4358 19.5049 24.0344 20.0001 24.0344V24.0344C20.4952 24.0344 20.8966 24.4358 20.8966 24.931V29.4137H19.1035V24.931Z" stroke="#67ADFE" stroke-width="1.5" stroke-linecap="round" stroke-linejoin="round"/>
<path d="M23.5862 24.931C23.5862 24.4358 23.9876 24.0344 24.4827 24.0344V24.0344C24.9779 24.0344 25.3793 24.4358 25.3793 24.931V29.4137H23.5862V24.931Z" stroke="#67ADFE" stroke-width="1.5" stroke-linecap="round" stroke-linejoin="round"/>
</g>
<defs>
<clipPath id="clip0_361_1075">
<rect width="40" height="40" fill="white"/>
</clipPath>
</defs>
</svg>
