<svg width="40" height="40" viewBox="0 0 40 40" fill="none" xmlns="http://www.w3.org/2000/svg">
<circle cx="20" cy="20" r="20" fill="#9AC9FE"/>
<path d="M20 15.8333L15.8333 18.6979M20 15.8333L24.1667 18.6979M20 15.8333V13.3333M15.8333 18.6979L17.425 23.3333M15.8333 18.6979L13.4552 17.926M17.425 23.3333H22.575M17.425 23.3333L15.9552 25.3563M22.575 23.3333L24.1667 18.6979M22.575 23.3333L24.0448 25.3563M24.1667 18.6979L26.5448 17.926M20 13.3333L23.776 10.7375M20 13.3333L16.224 10.7375M13.4552 17.926L12.2115 13.7271M13.4552 17.926L10.0156 20.5646M15.9552 25.3563H11.5542M15.9552 25.3563L17.4865 29.6813M24.0448 25.3563L22.5135 29.6813M24.0448 25.3563H28.4458M29.9844 20.5646L26.5438 17.925L27.7885 13.7271M30 20C30 25.5228 25.5228 30 20 30C14.4772 30 10 25.5228 10 20C10 14.4772 14.4772 10 20 10C25.5228 10 30 14.4772 30 20Z" stroke="#014899" stroke-width="1.5" stroke-linecap="round" stroke-linejoin="round"/>
</svg>
