<svg width="40" height="40" viewBox="0 0 40 40" fill="none" xmlns="http://www.w3.org/2000/svg">
<g clip-path="url(#clip0_361_1067)">
<circle cx="20" cy="20" r="20" fill="#FFF2E3"/>
<path d="M15 20.5C15 23.5376 12.7614 26 10 26C7.23858 26 5 23.5376 5 20.5C5 17.4624 7.23858 15 10 15C12.7614 15 15 17.4624 15 20.5Z" fill="#F79F3B"/>
<path d="M30.3968 21.3013L30.2465 15.8311L32.9152 14.0179C34.0589 13.2408 34.6235 12.0213 34.4256 11.32C33.8464 10.8776 32.5048 10.9533 31.361 11.7304L28.6923 13.5436L23.6621 11.3889C23.3541 11.2638 23.0736 11.3429 22.8967 11.5746L22.6435 11.8581C22.4543 12.1538 22.4572 12.4861 22.6767 12.7271L25.6424 15.6158L23.9952 17.2922L22.0743 16.9255L21.3118 17.4436L22.9882 19.0908L23.9021 21.256L24.6646 20.738L25.0313 18.8172L27.1965 17.9033L28.7897 21.7245C28.9329 22.0173 29.2408 22.1424 29.5854 22.0754L29.93 22.0085C30.2228 21.8653 30.3997 21.6336 30.3968 21.3013Z" stroke="#F79F3B" stroke-width="1.5" stroke-linecap="round" stroke-linejoin="round"/>
<path d="M30.3053 24.7143C29.6843 26.1372 28.7527 27.4089 27.5735 28.4331C26.1117 29.7027 24.3267 30.5424 22.4167 30.859C20.5066 31.1756 18.5461 30.9566 16.753 30.2265C14.9598 29.4963 13.404 28.2835 12.2584 26.7227C11.1127 25.1619 10.422 23.3141 10.263 21.3845C10.1039 19.4549 10.4827 17.519 11.3572 15.7916C12.2318 14.0643 13.5679 12.6131 15.2173 11.5991C16.8667 10.5852 18.7649 10.0481 20.701 10.0476C18.011 12.8721 16.5105 16.6232 16.5105 20.5238C16.5105 24.4244 18.011 28.1754 20.701 31C22.4509 29.1625 23.7095 26.9193 24.3676 24.4779" stroke="#014899" stroke-width="1.5" stroke-linecap="round" stroke-linejoin="round"/>
<path d="M10.2246 20.5238H19.1294" stroke="#014899" stroke-width="1.5" stroke-linecap="round" stroke-linejoin="round"/>
</g>
<defs>
<clipPath id="clip0_361_1067">
<rect width="40" height="40" fill="white"/>
</clipPath>
</defs>
</svg>
