<svg width="40" height="40" viewBox="0 0 40 40" fill="none" xmlns="http://www.w3.org/2000/svg">
<g clip-path="url(#clip0_361_1071)">
<circle cx="20" cy="20" r="20" fill="#FFF2E3"/>
<path d="M36.0941 23.9409C36.0941 27.2021 33.4503 29.8459 30.189 29.8459C26.9277 29.8459 24.2839 27.2021 24.2839 23.9409C24.2839 20.6796 26.9277 18.0358 30.189 18.0358C33.4503 18.0358 36.0941 20.6796 36.0941 23.9409Z" fill="#F79F3B"/>
<path d="M12.7014 15.8912C12.7014 17.4942 11.402 18.7936 9.79907 18.7936C8.19615 18.7936 6.89673 17.4942 6.89673 15.8912C6.89673 14.2883 8.19615 12.9889 9.79907 12.9889C11.402 12.9889 12.7014 14.2883 12.7014 15.8912Z" fill="#F79F3B"/>
<path d="M17.0034 13.5922C17.8409 14.2096 18.854 14.5426 19.8944 14.5426C20.9348 14.5426 21.9479 14.2096 22.7853 13.5922" stroke="#F79F3B" stroke-width="1.5" stroke-linecap="round" stroke-linejoin="round"/>
<path d="M15.5042 18.4105C16.4678 19.2671 18.0739 19.8025 19.8941 19.8025C21.7144 19.8025 23.3204 19.2671 24.2841 18.4105" stroke="#F79F3B" stroke-width="1.5" stroke-linecap="round" stroke-linejoin="round"/>
<path d="M15.076 20.0166L10.0436 22.9076C9.50823 23.2288 9.18701 23.6571 9.18701 24.0854C9.18701 24.5137 9.50823 24.942 10.0436 25.2632L18.1811 30.0814C19.1448 30.6168 20.4296 30.6168 21.3933 30.0814L29.5308 25.2632C30.2803 24.942 30.6015 24.5137 30.6015 24.0854C30.6015 23.6571 30.2803 23.2288 29.7449 22.9076L24.7125 19.9095" stroke="#014899" stroke-width="1.5" stroke-linecap="round" stroke-linejoin="round"/>
<path d="M21.9285 10.7013C21.8568 10.2208 21.618 9.78093 21.2542 9.45898C20.8903 9.13703 20.4247 8.95356 19.9391 8.94078C19.4534 8.928 18.9788 9.08673 18.5985 9.3891C18.2183 9.69146 17.9567 10.1181 17.8598 10.5942L14.6476 21.3014C14.5405 21.5156 14.5405 21.7297 14.5405 21.9439C14.5405 23.7641 16.8961 25.156 19.8942 25.156C22.8922 25.156 25.2478 23.7641 25.2478 21.9439C25.2478 21.7297 25.2478 21.5156 25.1407 21.4085L21.9285 10.7013Z" stroke="#014899" stroke-width="1.5" stroke-linecap="round" stroke-linejoin="round"/>
</g>
<defs>
<clipPath id="clip0_361_1071">
<rect width="40" height="40" fill="white"/>
</clipPath>
</defs>
</svg>
