<svg width="40" height="40" viewBox="0 0 40 40" fill="none" xmlns="http://www.w3.org/2000/svg">
<circle cx="20" cy="20" r="19.5" stroke="#E0E0E9"/>
<path d="M26 29C26 27.4087 25.3679 25.8826 24.2426 24.7574C23.1174 23.6321 21.5913 23 20 23M20 23C18.4087 23 16.8826 23.6321 15.7574 24.7574C14.6321 25.8826 14 27.4087 14 29M20 23C22.2091 23 24 21.2091 24 19C24 16.7909 22.2091 15 20 15C17.7909 15 16 16.7909 16 19C16 21.2091 17.7909 23 20 23ZM13 11H27C28.1046 11 29 11.8954 29 13V27C29 28.1046 28.1046 29 27 29H13C11.8954 29 11 28.1046 11 27V13C11 11.8954 11.8954 11 13 11Z" stroke="#014899" stroke-width="1.5" stroke-linecap="round" stroke-linejoin="round"/>
</svg>
