<?xml version="1.0" encoding="UTF-8" standalone="no"?><!DOCTYPE svg PUBLIC "-//W3C//DTD SVG 1.1//EN" "http://www.w3.org/Graphics/SVG/1.1/DTD/svg11.dtd"><svg width="100%" height="100%" viewBox="0 0 138 36" version="1.1" xmlns="http://www.w3.org/2000/svg" xmlns:xlink="http://www.w3.org/1999/xlink" xml:space="preserve" xmlns:serif="http://www.serif.com/" style="fill-rule:evenodd;clip-rule:evenodd;stroke-linejoin:round;stroke-miterlimit:2;"><g id="Ebene_1_Kopie"><path d="M26.87,26.46l0,-16.52l3.43,-9.05l3.43,9.05l0,1.92l1.2,-1.56l1.19,1.56l0,-1.92l3.43,-9.05l3.44,9.05l-0.01,11.79l-1.35,0l0,-11.54l-2.08,-5.48l-2.08,5.48l0,5.86l-2.54,-3.44l-2.55,3.44l0,-5.86l-2.08,-5.48l-2.08,5.48l0,16.27l-1.35,0Z" style="fill:#014491;fill-rule:nonzero;"/><path d="M65.22,13.42l0.94,0l0,-2.36c0,-1.24 0.48,-2.1 1.55,-2.1c0.82,0.05 1.08,0.63 1.08,1.82l0,2.65l0.94,0l0,-3.04c0,-1.37 -0.59,-2.19 -1.91,-2.19c-0.71,0 -1.39,0.35 -1.67,0.93l-0.02,0l0,-0.81l-0.91,0l0,5.1Z" style="fill:#014491;fill-rule:nonzero;"/><path d="M71.23,13.42l0.94,0l0,-5.11l-0.94,0l0,5.11Zm1,-7.31l-1.06,0l0,1.06l1.06,0l0,-1.06Z" style="fill:#014491;"/><path d="M73.66,13.42l0.9,0l0,-0.72l0.02,0c0.25,0.38 0.83,0.84 1.74,0.84c1.54,0 2.19,-1.36 2.19,-2.77c0,-1.37 -0.72,-2.59 -2.2,-2.59c-0.89,0 -1.4,0.35 -1.69,0.82l-0.02,0l0,-3.11l-0.94,0l0,7.53Zm3.86,-2.57c0.02,0.8 -0.4,1.93 -1.41,1.93c-1.06,0 -1.5,-1.05 -1.5,-1.9c0,-0.95 0.49,-1.92 1.51,-1.92c1.02,-0.01 1.42,0.96 1.4,1.89Z" style="fill:#014491;"/><path d="M83.47,12.27c-0.23,0.19 -0.95,0.51 -1.57,0.51c-0.89,0 -1.68,-0.69 -1.68,-1.7l3.65,0c0,-1.64 -0.55,-2.89 -2.25,-2.89c-1.44,0 -2.39,1.07 -2.39,2.59c0,1.66 0.83,2.77 2.65,2.77c0.84,0 1.25,-0.2 1.61,-0.33l0,-0.95l-0.02,0Zm-3.26,-1.9c0.07,-0.66 0.45,-1.42 1.37,-1.42c0.81,0 1.27,0.64 1.27,1.42l-2.64,0Z" style="fill:#014491;"/><rect x="85.01" y="5.9" width="0.94" height="7.52" style="fill:#014491;fill-rule:nonzero;"/><path d="M91.96,8.31l-0.94,0l0,2.36c0,1.24 -0.48,2.1 -1.55,2.1c-0.82,-0.05 -1.08,-0.63 -1.08,-1.82l0,-2.65l-0.94,0l0,3.04c0,1.37 0.59,2.19 1.91,2.19c0.71,0 1.39,-0.35 1.67,-0.93l0.02,0l0,0.81l0.91,0l0,-5.1Z" style="fill:#014491;fill-rule:nonzero;"/><path d="M93.32,13.42l0.94,0l0,-2.36c0,-1.24 0.48,-2.1 1.55,-2.1c0.82,0.05 1.08,0.63 1.08,1.82l0,2.65l0.94,0l0,-3.04c0,-1.37 -0.59,-2.19 -1.91,-2.19c-0.71,0 -1.39,0.35 -1.67,0.93l-0.02,0l0,-0.81l-0.91,0l0,5.1Z" style="fill:#014491;fill-rule:nonzero;"/><path d="M103.73,8.31l-0.87,0l0,0.76l-0.02,0c-0.28,-0.55 -0.78,-0.88 -1.68,-0.88c-1.54,0 -2.28,1.4 -2.28,2.72c0,1.32 0.72,2.52 2.18,2.52c0.65,0 1.31,-0.26 1.71,-0.79l0.02,0l0,0.5c0,1.08 -0.59,1.75 -1.58,1.75c-0.69,0 -1.12,-0.13 -1.84,-0.46l-0.1,0.87c0.82,0.28 1.29,0.35 1.83,0.35c1.83,0 2.64,-0.89 2.64,-2.45l0,-4.89l-0.01,0Zm-2.43,4.35c-0.88,0 -1.42,-0.84 -1.42,-1.8c0,-0.87 0.47,-1.9 1.42,-1.9c1,0 1.49,0.91 1.49,1.97c0,0.95 -0.61,1.73 -1.49,1.73Z" style="fill:#014491;"/><path d="M109.02,12.27c-0.23,0.19 -0.95,0.51 -1.57,0.51c-0.89,0 -1.68,-0.69 -1.68,-1.7l3.65,0c0,-1.64 -0.55,-2.89 -2.25,-2.89c-1.44,0 -2.4,1.07 -2.4,2.59c0,1.66 0.83,2.77 2.65,2.77c0.84,0 1.25,-0.2 1.61,-0.33l0,-0.95l-0.01,0Zm-3.26,-1.9c0.07,-0.66 0.45,-1.42 1.37,-1.42c0.81,0 1.27,0.64 1.27,1.42l-2.64,0Z" style="fill:#014491;"/><path d="M110.44,13.42l0.94,0l0,-2.36c0,-1.24 0.48,-2.1 1.55,-2.1c0.82,0.05 1.08,0.63 1.08,1.82l0,2.65l0.94,0l0,-3.04c0,-1.37 -0.59,-2.19 -1.91,-2.19c-0.71,0 -1.39,0.35 -1.67,0.93l-0.02,0l0,-0.81l-0.91,0l0,5.1Z" style="fill:#014491;fill-rule:nonzero;"/><path d="M115.89,13.26c0.43,0.23 0.92,0.28 1.4,0.28c0.91,0 1.78,-0.5 1.78,-1.59c0,-1.63 -2.21,-1.33 -2.21,-2.37c0,-0.42 0.42,-0.62 0.9,-0.62c0.22,0 0.78,0.13 0.99,0.26l0.08,-0.82c-0.37,-0.11 -0.73,-0.2 -1.17,-0.2c-1.01,0 -1.8,0.51 -1.8,1.57c0,1.43 2.21,1.35 2.21,2.29c0,0.55 -0.53,0.73 -0.96,0.73c-0.27,0 -0.8,-0.12 -1.17,-0.36l-0.05,0.83Z" style="fill:#014491;fill-rule:nonzero;"/><path d="M122.71,8.31l-1.35,0l0,-1.48l-0.94,0.3l0,1.18l-1.15,0l0,0.76l1.15,0l0,2.99c0,1.02 0.6,1.48 1.57,1.48c0.3,0 0.59,-0.08 0.8,-0.14l0,-0.8c-0.14,0.09 -0.35,0.18 -0.64,0.18c-0.43,0 -0.79,-0.32 -0.79,-0.91l0,-2.8l1.35,0l0,-0.76Z" style="fill:#014491;fill-rule:nonzero;"/><path d="M123.94,9.47c0.38,-0.32 0.95,-0.52 1.48,-0.52c0.94,0 1.26,0.45 1.26,1.33c-0.37,-0.02 -0.63,-0.02 -1,-0.02c-0.97,0 -2.38,0.4 -2.38,1.68c0,1.11 0.77,1.59 1.87,1.59c0.86,0 1.36,-0.47 1.58,-0.78l0.02,0l0,0.66l0.88,0c-0.02,-0.15 -0.04,-0.42 -0.04,-1l0,-2.11c0,-1.39 -0.59,-2.11 -2.05,-2.11c-0.65,0 -1.21,0.2 -1.68,0.48l0.06,0.8Zm2.75,1.97c0,0.76 -0.49,1.34 -1.42,1.34c-0.43,0 -0.95,-0.29 -0.95,-0.83c0,-0.9 1.26,-0.98 1.77,-0.98c0.2,0 0.4,0.02 0.6,0.02l0,0.45Z" style="fill:#014491;"/><path d="M132.61,13.42l0.9,0l0,-7.52l-0.94,0l0,3.11l-0.02,0c-0.29,-0.47 -0.8,-0.82 -1.69,-0.82c-1.48,0 -2.21,1.21 -2.21,2.59c0,1.39 0.65,2.77 2.19,2.77c0.91,0 1.49,-0.46 1.74,-0.84l0.02,0l0,0.71l0.01,0Zm-2.96,-2.57c-0.02,-0.93 0.38,-1.89 1.4,-1.89c1.02,0 1.51,0.97 1.51,1.92c0,0.85 -0.44,1.9 -1.5,1.9c-1.01,0 -1.43,-1.13 -1.41,-1.93Z" style="fill:#014491;"/><path d="M137.59,8.31l-1.35,0l0,-1.48l-0.94,0.3l0,1.18l-1.15,0l0,0.76l1.15,0l0,2.99c0,1.02 0.6,1.48 1.57,1.48c0.3,0 0.59,-0.08 0.8,-0.14l0,-0.8c-0.14,0.09 -0.35,0.18 -0.64,0.18c-0.43,0 -0.79,-0.32 -0.79,-0.91l0,-2.8l1.35,0l0,-0.76Z" style="fill:#014491;fill-rule:nonzero;"/><path d="M43.35,27.07l3.24,0l2.33,-8.33l0.04,0l2.37,8.33l3.35,0l3.35,-10.91l-2.72,0l-2.26,8.07l-0.04,0l-2.38,-8.07l-3.3,0l-2.2,8.07l-0.05,0l-2.41,-8.07l-3.01,0l3.69,10.91Z" style="fill:#014491;fill-rule:nonzero;"/><path d="M59.81,21.69c0,3.14 2.1,5.64 5.7,5.64c3.62,0 5.72,-2.5 5.72,-5.64c0,-3.6 -2.48,-5.78 -5.72,-5.78c-3.22,-0.01 -5.7,2.18 -5.7,5.78Zm2.96,-0.34c0,-1.63 0.89,-3.24 2.73,-3.24c1.87,0 2.75,1.57 2.75,3.24c0,1.82 -0.57,3.77 -2.75,3.77c-2.15,0 -2.73,-1.97 -2.73,-3.77Z" style="fill:#014491;"/><path d="M74.3,27.07l2.84,0l0,-4c0,-1.57 0,-4.45 2.31,-4.45c0.51,0 1.02,0.08 1.27,0.23l0,-2.86c-0.3,-0.08 -0.59,-0.08 -0.87,-0.08c-1.7,0 -2.86,1.72 -2.99,2.73l-0.04,0l0,-2.48l-2.52,0l0,10.91Z" style="fill:#014491;fill-rule:nonzero;"/><path d="M83.22,27.07l2.84,0l0,-5.3c0,-1.42 0.23,-3.67 2.12,-3.67c1.63,0 1.63,1.44 1.63,2.46l0,6.5l2.84,0l0,-5.3c0,-1.42 0.23,-3.67 2.12,-3.67c1.63,0 1.63,1.44 1.63,2.46l0,6.5l2.84,0l0,-6.88c0,-2.44 -0.76,-4.28 -3.45,-4.28c-1.33,0 -2.75,0.61 -3.41,1.93c-0.61,-1.36 -1.69,-1.93 -3.22,-1.93c-1.06,0 -2.35,0.44 -3.24,1.78l-0.04,0l0,-1.53l-2.65,0l0,10.93l-0.01,0Z" style="fill:#014491;fill-rule:nonzero;"/><path d="M109.55,16.31c-0.89,-0.19 -1.76,-0.4 -3.09,-0.4c-2.22,0 -4.28,1.04 -4.28,3.39c0,3.94 4.94,2.48 4.94,4.62c0,1.06 -1.14,1.33 -1.86,1.33c-0.97,0 -1.91,-0.28 -2.8,-0.72l-0.17,2.33c1.04,0.28 2.14,0.47 3.22,0.47c2.31,0 4.58,-1.02 4.58,-3.56c0,-3.94 -4.94,-2.84 -4.94,-4.58c0,-0.93 0.91,-1.21 1.67,-1.21c1.04,0 1.67,0.17 2.54,0.47l0.19,-2.14Z" style="fill:#014491;fill-rule:nonzero;"/><path d="M4.56,34.3c1.78,-6.1 9.17,-10.04 16.7,-8.7c6.16,1.09 8.49,4.16 14.28,6.04c4.02,1.32 8.16,1.22 12.34,0.33c6.34,-1.36 8.5,-2 14.52,-4.14c0.14,-0.05 0.26,0.1 0.12,0.17c-5.37,2.73 -9.86,4.82 -14.65,6.03c-5.12,1.13 -8.76,1.95 -13.68,0.33c-5.66,-1.84 -7.54,-5.41 -13.55,-6.47c-6.72,-1.2 -14.25,1 -15.84,6.45c-0.04,0.13 -0.27,0.09 -0.24,-0.04Z" style="fill:#aeb4d9;fill-rule:nonzero;"/><path d="M0,28.81c1.78,-6.1 9.14,-10.03 16.66,-8.68c1.67,0.32 3.2,1.11 4.52,1.97c0.9,0.59 1.7,1.22 2.38,1.75c0.61,0.47 1.25,0.94 1.51,1.1c0.44,0.27 0.71,0.46 0.99,0.63c0.41,0.26 1.15,0.69 1.21,0.82c0.02,0.04 -0.23,0.08 -0.4,0.06c-0.4,-0.09 -1.03,-0.31 -1.73,-0.58c-1.83,-0.71 -3.15,-1.51 -3.82,-1.83c-0.71,-0.38 -1.53,-0.74 -2.37,-0.98c-0.75,-0.23 -1.64,-0.47 -2.87,-0.65c-6.76,-0.95 -14.25,1 -15.84,6.45c-0.04,0.11 -0.27,0.06 -0.24,-0.06Z" style="fill:#95c11f;fill-rule:nonzero;"/></g></svg>